<svg width="2174" height="690" viewBox="0 0 2174 690" fill="none" xmlns="http://www.w3.org/2000/svg">
<path d="M0 0.0220853C3.75189 111.214 3.41075 201.601 2.3875 263.337C0.341018 384.42 -4.43405 432.513 25.5811 494.93C59.007 563.829 112.216 602.712 135.409 619.084C212.152 673.316 287.531 682.184 328.12 686.277C378.6 691.393 491.497 694.122 502.071 657.626C507.869 638.525 475.126 626.247 414.754 551.209C390.879 521.535 372.119 498 354.042 462.187C346.879 448.202 327.097 406.59 316.523 347.925C309.36 309.724 313.794 304.266 307.996 262.654C301.857 217.291 296.058 176.361 274.911 137.819C236.028 66.5328 163.378 37.8821 129.27 24.2388C76.7432 3.09183 29.333 -0.318996 0 0.0220853Z" fill="#654DE5"/>
<path d="M566.196 590.774C598.94 588.386 621.11 559.053 648.055 523.239C671.931 491.519 682.845 462.527 686.256 452.977C691.713 437.287 702.287 401.815 699.558 356.11C697.853 329.164 695.806 292.669 671.59 255.15C662.039 240.142 639.528 206.375 594.505 191.027C584.273 187.616 542.32 174.655 497.639 193.755C445.453 216.267 426.012 266.406 417.826 287.212C385.423 371.117 423.624 449.907 434.88 473.783C441.701 487.767 453.98 510.62 475.468 533.813C500.026 560.758 529.7 593.161 566.196 590.774Z" fill="#654DE5"/>
<path d="M934.056 315.545H1116.3V398.55H934.056V315.545ZM941.906 470.339H1147.14V556.148H832V163.556H1139.85V249.365H941.906V470.339Z" fill="black"/>
<path d="M1292.89 561.196C1265.23 561.196 1239.99 554.84 1217.19 542.127C1194.76 529.041 1176.81 510.907 1163.36 487.725C1149.9 464.169 1143.17 436.127 1143.17 403.598C1143.17 371.443 1149.9 343.774 1163.36 320.593C1176.81 297.037 1194.76 278.903 1217.19 266.19C1239.99 253.478 1265.23 247.122 1292.89 247.122C1319.06 247.122 1341.11 252.73 1359.06 263.947C1377.37 275.164 1391.21 292.363 1400.55 315.545C1409.9 338.727 1414.57 368.078 1414.57 403.598C1414.57 439.866 1410.08 469.591 1401.11 492.773C1392.14 515.954 1378.68 533.153 1360.74 544.37C1342.8 555.587 1320.18 561.196 1292.89 561.196ZM1315.32 476.508C1327.28 476.508 1337.94 473.704 1347.28 468.095C1357 462.487 1364.66 454.261 1370.27 443.418C1375.88 432.201 1378.68 418.928 1378.68 403.598C1378.68 388.268 1375.88 375.369 1370.27 364.899C1364.66 354.056 1357 345.831 1347.28 340.222C1337.94 334.614 1327.28 331.81 1315.32 331.81C1302.98 331.81 1291.95 334.614 1282.23 340.222C1272.89 345.831 1265.41 354.056 1259.81 364.899C1254.2 375.369 1251.39 388.268 1251.39 403.598C1251.39 418.928 1254.2 432.201 1259.81 443.418C1265.41 454.261 1272.89 462.487 1282.23 468.095C1291.95 473.704 1302.98 476.508 1315.32 476.508ZM1382.05 556.148V503.989L1382.61 403.598L1377 303.206V140H1483.54V556.148H1382.05Z" fill="black"/>
<path d="M1658.63 670C1629.47 670 1601.62 666.635 1575.08 659.905C1548.91 653.175 1526.48 643.266 1507.79 630.18L1546.48 555.587C1559.19 565.683 1574.89 573.534 1593.58 579.143C1612.65 585.125 1631.15 588.116 1649.1 588.116C1677.88 588.116 1698.63 581.76 1711.34 569.048C1724.05 556.709 1730.41 538.575 1730.41 514.646V478.751L1736.01 393.503L1735.45 307.693V252.169H1836.95V500.624C1836.95 558.205 1821.43 600.829 1790.41 628.497C1759.38 656.166 1715.45 670 1658.63 670ZM1640.13 540.444C1613.21 540.444 1588.35 534.462 1565.55 522.497C1543.12 510.159 1524.99 493.146 1511.15 471.46C1497.7 449.4 1490.97 423.414 1490.97 393.503C1490.97 363.591 1497.7 337.792 1511.15 316.106C1524.99 294.046 1543.12 277.034 1565.55 265.069C1588.35 253.104 1613.21 247.122 1640.13 247.122C1665.92 247.122 1687.98 252.356 1706.29 262.825C1724.61 272.921 1738.44 288.811 1747.79 310.497C1757.51 332.183 1762.37 359.852 1762.37 393.503C1762.37 427.153 1757.51 454.822 1747.79 476.508C1738.44 498.194 1724.61 514.272 1706.29 524.741C1687.98 535.21 1665.92 540.444 1640.13 540.444ZM1665.36 455.757C1678.07 455.757 1689.29 453.139 1699 447.905C1709.1 442.67 1716.95 435.379 1722.56 426.032C1728.54 416.684 1731.53 405.841 1731.53 393.503C1731.53 381.164 1728.54 370.321 1722.56 360.974C1716.95 351.626 1709.1 344.522 1699 339.661C1689.29 334.427 1678.07 331.81 1665.36 331.81C1652.65 331.81 1641.25 334.427 1631.15 339.661C1621.06 344.522 1613.02 351.626 1607.04 360.974C1601.44 370.321 1598.63 381.164 1598.63 393.503C1598.63 405.841 1601.44 416.684 1607.04 426.032C1613.02 435.379 1621.06 442.67 1631.15 447.905C1641.25 453.139 1652.65 455.757 1665.36 455.757Z" fill="black"/>
<path d="M2022.6 561.196C1986.71 561.196 1955.31 554.466 1928.39 541.005C1901.85 527.171 1881.1 508.476 1866.15 484.921C1851.57 460.991 1844.28 433.884 1844.28 403.598C1844.28 373.312 1851.38 346.392 1865.59 322.836C1880.17 298.907 1900.17 280.399 1925.59 267.312C1951.01 253.852 1979.61 247.122 2011.38 247.122C2041.29 247.122 2068.58 253.291 2093.25 265.63C2117.93 277.594 2137.55 295.355 2152.13 318.91C2166.71 342.466 2174 371.069 2174 404.72C2174 408.459 2173.81 412.758 2173.44 417.619C2173.07 422.48 2172.69 426.967 2172.32 431.079H1931.76V374.995H2115.68L2075.31 390.698C2075.68 376.864 2073.07 364.899 2067.46 354.804C2062.22 344.709 2054.75 336.857 2045.03 331.249C2035.68 325.64 2024.65 322.836 2011.94 322.836C1999.23 322.836 1988.02 325.64 1978.3 331.249C1968.95 336.857 1961.66 344.896 1956.43 355.365C1951.2 365.46 1948.58 377.425 1948.58 391.259V407.524C1948.58 422.48 1951.57 435.379 1957.55 446.222C1963.91 457.065 1972.88 465.478 1984.47 471.46C1996.06 477.069 2009.89 479.873 2025.96 479.873C2040.92 479.873 2053.63 477.817 2064.09 473.704C2074.94 469.217 2085.59 462.487 2096.06 453.513L2152.13 511.841C2137.55 527.919 2119.61 540.258 2098.3 548.857C2076.99 557.083 2051.76 561.196 2022.6 561.196Z" fill="black"/>
</svg>
