<svg width="514" height="163" viewBox="0 0 514 163" fill="none" xmlns="http://www.w3.org/2000/svg">
<path d="M0 0.00522163C0.887061 26.2945 0.806405 47.6646 0.564479 62.2608C0.0806272 90.8887 -1.04835 102.259 6.04815 117.017C13.9511 133.306 26.5312 142.5 32.0148 146.37C50.1593 159.192 67.9811 161.289 77.5775 162.257C89.5125 163.466 116.205 164.112 118.705 155.483C120.076 150.967 112.334 148.064 98.0606 130.323C92.4157 123.307 87.9803 117.742 83.7063 109.275C82.0128 105.969 77.3356 96.1304 74.8357 82.26C73.1422 73.2281 74.1906 71.9378 72.8197 62.0995C71.3681 51.3741 69.9972 41.6971 64.9974 32.5846C55.8042 15.7304 38.6275 8.95648 30.5633 5.7308C18.1444 0.731004 6.93521 -0.0754203 0 0.00522163Z" fill="#654DE5"/>
<path d="M133.866 139.677C141.608 139.113 146.85 132.177 153.22 123.71C158.865 116.21 161.446 109.356 162.252 107.098C163.542 103.388 166.042 95.0014 165.397 84.1953C164.994 77.8246 164.51 69.1959 158.785 60.3253C156.527 56.7771 151.204 48.7935 140.559 45.1646C138.14 44.3582 128.221 41.2938 117.657 45.8098C105.319 51.1321 100.722 62.9865 98.7869 67.9057C91.126 87.7436 100.158 106.372 102.819 112.017C104.432 115.323 107.335 120.726 112.415 126.21C118.222 132.581 125.237 140.242 133.866 139.677Z" fill="#654DE5"/>
<path d="M220.839 74.6045H263.927V94.2295H220.839V74.6045ZM222.695 111.202H271.218V131.49H196.71V38.6696H269.495V58.9576H222.695V111.202Z" fill="black"/>
<path d="M305.678 132.684C299.138 132.684 293.172 131.181 287.78 128.175C282.477 125.081 278.235 120.794 275.053 115.313C271.871 109.744 270.28 103.114 270.28 95.4229C270.28 87.8205 271.871 81.2788 275.053 75.798C278.235 70.2287 282.477 65.9413 287.78 62.9356C293.172 59.93 299.138 58.4272 305.678 58.4272C311.865 58.4272 317.08 59.7532 321.322 62.4052C325.653 65.0572 328.923 69.1237 331.133 74.6045C333.343 80.0854 334.448 87.0249 334.448 95.4229C334.448 103.998 333.387 111.026 331.266 116.507C329.144 121.987 325.963 126.054 321.72 128.706C317.478 131.358 312.13 132.684 305.678 132.684ZM310.981 112.661C313.81 112.661 316.329 111.998 318.538 110.672C320.836 109.346 322.648 107.401 323.974 104.838C325.3 102.186 325.963 99.0474 325.963 95.4229C325.963 91.7985 325.3 88.7487 323.974 86.2734C322.648 83.7098 320.836 81.765 318.538 80.439C316.329 79.113 313.81 78.45 310.981 78.45C308.065 78.45 305.457 79.113 303.159 80.439C300.95 81.765 299.182 83.7098 297.856 86.2734C296.53 88.7487 295.867 91.7985 295.867 95.4229C295.867 99.0474 296.53 102.186 297.856 104.838C299.182 107.401 300.95 109.346 303.159 110.672C305.457 111.998 308.065 112.661 310.981 112.661ZM326.758 131.49V119.159L326.891 95.4229L325.565 71.6873V33.1003H350.755V131.49H326.758Z" fill="black"/>
<path d="M392.151 158.409C385.257 158.409 378.672 157.613 372.397 156.022C366.21 154.43 360.907 152.088 356.487 148.994L365.635 131.358C368.64 133.745 372.353 135.601 376.772 136.927C381.279 138.342 385.654 139.049 389.897 139.049C396.703 139.049 401.608 137.546 404.613 134.54C407.618 131.623 409.121 127.336 409.121 121.678V113.192L410.446 93.0361L410.314 72.7481V59.6206H434.31V118.363C434.31 131.977 430.642 142.054 423.306 148.596C415.971 155.138 405.585 158.409 392.151 158.409ZM387.776 127.778C381.412 127.778 375.534 126.363 370.143 123.534C364.84 120.617 360.553 116.595 357.283 111.468C354.101 106.252 352.51 100.108 352.51 93.0361C352.51 85.964 354.101 79.8644 357.283 74.7371C360.553 69.5215 364.84 65.4993 370.143 62.6704C375.534 59.8416 381.412 58.4272 387.776 58.4272C393.874 58.4272 399.089 59.6648 403.42 62.14C407.751 64.5268 411.021 68.2839 413.231 73.4111C415.529 78.5384 416.678 85.08 416.678 93.0361C416.678 100.992 415.529 107.534 413.231 112.661C411.021 117.788 407.751 121.59 403.42 124.065C399.089 126.54 393.874 127.778 387.776 127.778ZM393.742 107.755C396.747 107.755 399.398 107.136 401.696 105.898C404.083 104.661 405.939 102.937 407.265 100.727C408.679 98.517 409.386 95.9533 409.386 93.0361C409.386 90.1189 408.679 87.5553 407.265 85.3452C405.939 83.1352 404.083 81.4556 401.696 80.3064C399.398 79.0688 396.747 78.45 393.742 78.45C390.737 78.45 388.041 79.0688 385.655 80.3064C383.268 81.4556 381.368 83.1352 379.954 85.3452C378.628 87.5553 377.965 90.1189 377.965 93.0361C377.965 95.9533 378.628 98.517 379.954 100.727C381.368 102.937 383.268 104.661 385.655 105.898C388.041 107.136 390.737 107.755 393.742 107.755Z" fill="black"/>
<path d="M478.204 132.684C469.719 132.684 462.295 131.093 455.931 127.91C449.656 124.639 444.75 120.219 441.215 114.65C437.768 108.992 436.044 102.583 436.044 95.4229C436.044 88.2625 437.724 81.8976 441.082 76.3284C444.529 70.6707 449.258 66.2949 455.268 63.2008C461.278 60.0184 468.04 58.4272 475.552 58.4272C482.623 58.4272 489.075 59.8858 494.909 62.803C500.742 65.6319 505.382 69.8309 508.829 75.4001C512.276 80.9694 514 87.7321 514 95.6881C514 96.5721 513.956 97.5888 513.867 98.738C513.779 99.8872 513.69 100.948 513.602 101.92H456.726V88.6603H500.212L490.666 92.3731C490.755 89.1023 490.136 86.2734 488.81 83.8866C487.573 81.4998 485.805 79.6434 483.507 78.3174C481.297 76.9914 478.69 76.3284 475.685 76.3284C472.68 76.3284 470.028 76.9914 467.73 78.3174C465.521 79.6434 463.797 81.544 462.56 84.0192C461.322 86.406 460.704 89.2349 460.704 92.5057V96.3511C460.704 99.8872 461.411 102.937 462.825 105.501C464.327 108.064 466.449 110.053 469.189 111.468C471.929 112.794 475.199 113.457 478.999 113.457C482.535 113.457 485.54 112.971 488.015 111.998C490.578 110.937 493.097 109.346 495.572 107.224L508.829 121.015C505.382 124.816 501.14 127.733 496.102 129.767C491.064 131.711 485.098 132.684 478.204 132.684Z" fill="black"/>
</svg>
